<svg id="Group_28" data-name="Group 28" xmlns="http://www.w3.org/2000/svg" width="392.309" height="104.913" viewBox="0 0 392.309 104.913">
  <g id="Group_27" data-name="Group 27" transform="translate(0 27.704)">
    <path id="Path_1" data-name="Path 1" d="M347.657,182.019H18.056A18.109,18.109,0,0,1,0,163.963V136.056A18.109,18.109,0,0,1,18.056,118h329.6a18.109,18.109,0,0,1,18.056,18.056v27.907a18.109,18.109,0,0,1-18.056,18.056" transform="translate(0 -118)" fill="#e82125"/>
    <path id="Path_2" data-name="Path 2" d="M76.9,194.116c-.705.031-1.625.061-2.729.061-1.012,0-2.085,0-3.005-.061a.621.621,0,0,1-.583-.521,53.973,53.973,0,0,1-.859-10,87.566,87.566,0,0,1,.951-12.237c.061-.521.368-.675.613-.675.675-.061,1.871-.092,3.036-.092.981,0,1.932.031,2.607.092a1.256,1.256,0,0,1,1.135.736,60.511,60.511,0,0,1,3.343,8.127c.061.215.184.307.337.307s.245-.092.307-.276a86.331,86.331,0,0,1,3.282-8,1.479,1.479,0,0,1,1.043-.828c.767-.061,1.656-.123,2.576-.123.828,0,1.656.061,2.515.123a1,1,0,0,1,.951.736,51.868,51.868,0,0,1,1.349,11.777,73.764,73.764,0,0,1-.736,10.09.8.8,0,0,1-.736.767c-.736.061-2.208.123-3.588.123-1.073,0-2.024-.061-2.637-.123-.4-.061-.552-.215-.552-.521,0-1.1,1.564-5.336,1.564-10.611a21.015,21.015,0,0,0-.337-4.2.234.234,0,0,0-.245-.215.26.26,0,0,0-.245.215,88.287,88.287,0,0,1-4.079,9.967.763.763,0,0,1-.675.491.843.843,0,0,1-.736-.491,64.2,64.2,0,0,1-3.987-9.906.353.353,0,0,0-.307-.245c-.123,0-.215.092-.245.245a31.546,31.546,0,0,0-.307,4.877c0,5.306,1.564,9.078,1.564,9.936C77.487,193.932,77.272,194.054,76.9,194.116Zm20.24,0c-.583-.031-.889-.153-.951-.705-.123-1.38-.215-2.791-.215-4.263,0-7.177,1.809-15.15,8.25-18.769a1.717,1.717,0,0,1,.736-.245,1.4,1.4,0,0,1,.705.245c5.827,3.741,8,10.458,8,18.616a40.022,40.022,0,0,1-.215,4.171c-.061.644-.4.828-.981.889-.705.061-1.564.092-2.392.092-1.012,0-1.993-.031-2.637-.092-.4-.061-.613-.245-.613-.644a34.219,34.219,0,0,0,.491-3.956c0-1.227-.613-1.748-1.963-1.748-1.809,0-3.373.705-3.373,2.453,0,1.38.337,2.515.337,3.312.031.337-.092.521-.491.583-.675.061-1.6.092-2.576.092C98.494,194.146,97.85,194.146,97.145,194.116Zm7.974-10.427c.736-.061,1.227-.092,1.595-.153.368-.092.491-.307.491-.736a12.061,12.061,0,0,0-1.9-5.858c-.153-.184-.245-.307-.368-.307-.153,0-.276.092-.46.307a12.039,12.039,0,0,0-2.3,6.962c0,.276.123.368.307.368A19.664,19.664,0,0,1,105.119,183.689Zm12.175,10.427c-.613-.031-.951-.307-1.043-1.2-.184-2.208-.276-4.723-.276-7.268a109.471,109.471,0,0,1,.8-13.648c.153-1.043.4-1.257,1.165-1.319.583-.031,1.349-.061,2.147-.061.767,0,1.564.031,2.361.061.583.031.889.215.828.828-.061,1.441-1.1,5.949-1.1,8.556,0,.276.092.429.276.429s.429-.184.767-.675c2.055-1.871,3.588-5.428,4.263-8.28.153-.613.368-.828.8-.859.705-.061,1.533-.092,2.362-.092.889,0,1.748.031,2.331.092.491.031.705.245.705.644a16.171,16.171,0,0,1-4.141,9.446.652.652,0,0,0-.276.552.7.7,0,0,0,.276.552c2.454,2.331,4.386,7.146,4.386,11.255,0,.644-.245.951-.8.981-.644.031-1.411.061-2.331.061-.8,0-1.626-.031-2.423-.092-.736-.061-.92-.368-.981-1.1-.767-5.888-1.932-8.188-3.465-8.188-.736,0-1.564,1.043-1.564,2.607,0,1.993.705,4.754.705,5.8a.809.809,0,0,1-.859.92c-.644.061-1.441.061-2.3.061C118.949,194.177,118,194.177,117.293,194.116Zm19.781,0c-.675-.031-1.043-.153-1.074-.889-.061-1.349-.092-2.852-.092-4.416a90.682,90.682,0,0,1,1.534-17.3.974.974,0,0,1,.828-.828c1.135-.092,3.5-.153,5.95-.153,2.668,0,5.367.061,6.9.184.46.031.583.215.583.429a23.507,23.507,0,0,1-1.319,4.447.485.485,0,0,1-.491.337,3.288,3.288,0,0,1-.951-.245,13.1,13.1,0,0,0-4.14-.644,2.545,2.545,0,0,0-1.963.583,5.526,5.526,0,0,0-.705,3.067c0,.644.276.92.828.92,1.073,0,2.484-.491,4.232-.491,1.257,0,2.177.215,2.177.767a24.042,24.042,0,0,1-.981,4.171c-.123.368-.245.46-.491.46a22.109,22.109,0,0,0-3.189-.491c-2.024,0-2.729.828-2.729,2.361,0,2.147.491,2.576,2.055,2.576a12.552,12.552,0,0,0,5.766-1.38c.307-.153.4-.245.583-.245a.413.413,0,0,1,.4.307,26.165,26.165,0,0,1,.92,5.612.829.829,0,0,1-.889.859c-1.993.092-4.355.123-6.624.123C141.49,194.238,138.914,194.208,137.074,194.116Zm26.282.061a22.915,22.915,0,0,1-2.944-.123c-.429-.061-.613-.215-.767-.736a59.129,59.129,0,0,1-.583-9.231,59.13,59.13,0,0,1,1.043-12.6.905.905,0,0,1,.828-.8c.859-.061,1.779-.092,2.7-.092.981,0,1.963.031,2.821.092.368.031.552.184.521.552a54.272,54.272,0,0,0-1.411,11.194,58.05,58.05,0,0,0,1.257,11.1c0,.368-.184.491-.552.521A22.911,22.911,0,0,1,163.356,194.177Zm10.059-.092c-.46-.031-.828-.245-.889-.981a36.06,36.06,0,0,1-.215-4.385c0-6.5.736-10.121.736-11.47,0-.429-.123-.705-.675-.705-1.871,0-3.251.889-3.926.889-.245,0-.429-.153-.429-.552a39.107,39.107,0,0,1,.613-4.968,1.166,1.166,0,0,1,.828-.767,25.208,25.208,0,0,1,6.962-.8c3.22,0,5.674.4,6.9,1.012a1.256,1.256,0,0,1,.644,1.38,25.852,25.852,0,0,1-.491,4.385c-.123.337-.245.46-.46.46-.613,0-1.717-.951-3.343-.951-.491,0-.705.215-.828.828a27.934,27.934,0,0,0-.276,3.895c0,5.889,1.257,11.071,1.257,11.991,0,.429-.184.644-.644.736a20.925,20.925,0,0,1-2.852.153A22,22,0,0,1,173.415,194.085Zm18.186.031c-.583-.031-.889-.153-.951-.705-.123-1.38-.215-2.791-.215-4.263,0-7.177,1.809-15.15,8.25-18.769a1.717,1.717,0,0,1,.736-.245,1.4,1.4,0,0,1,.705.245c5.827,3.741,8,10.458,8,18.616a40.018,40.018,0,0,1-.215,4.171c-.061.644-.4.828-.981.889-.705.061-1.564.092-2.392.092-1.012,0-1.993-.031-2.637-.092-.4-.061-.613-.245-.613-.644a34.221,34.221,0,0,0,.491-3.956c0-1.227-.613-1.748-1.963-1.748-1.809,0-3.373.705-3.373,2.453,0,1.38.337,2.515.337,3.312.031.337-.092.521-.491.583-.675.061-1.595.092-2.576.092C192.951,194.146,192.306,194.146,191.6,194.116Zm7.974-10.427c.736-.061,1.227-.092,1.595-.153.368-.092.491-.307.491-.736a12.061,12.061,0,0,0-1.9-5.858c-.153-.184-.245-.307-.368-.307-.153,0-.276.092-.46.307a12.039,12.039,0,0,0-2.3,6.962c0,.276.123.368.307.368A19.663,19.663,0,0,1,199.575,183.689Zm15.425.245c0-7.238,3.281-13.74,9.446-13.74,4.876,0,6.931,3.741,6.931,7.238a2.8,2.8,0,0,1-.8,2.116c-.828,1.043-3.159,2.637-4.2,2.637-.337,0-.46-.245-.46-.705s.061-1.1.061-1.687c0-1.993-.46-4.079-1.993-4.079-1.687,0-2.638,2.453-2.638,6.686,0,4.263,1.227,5.643,3.466,5.643,2.208,0,3.8-1.5,4.968-3.557a.594.594,0,0,1,.491-.307c.705,0,1.319,1.472,1.319,3.5,0,3.527-2.392,6.9-7.667,6.9C218.251,194.576,215,190.987,215,183.934Zm26.926,10.642c-6.9,0-9.078-4.109-9.078-9.231,0-7.882,3.1-15.181,9.016-15.181,5.95,0,9.017,7.3,9.017,15.181C250.882,190.466,248.735,194.576,241.926,194.576Zm2.852-10.4c0-4.938-1.227-8.434-2.913-8.434-1.779,0-2.883,3.557-2.883,8.4,0,3.22,1.043,4.477,2.913,4.477S244.779,187.338,244.779,184.179Zm15.334,9.936c-.705.031-1.625.061-2.729.061-1.012,0-2.085,0-3.006-.061a.621.621,0,0,1-.583-.521,53.974,53.974,0,0,1-.859-10,87.568,87.568,0,0,1,.951-12.237c.061-.521.368-.675.613-.675.675-.061,1.871-.092,3.036-.092.981,0,1.932.031,2.607.092a1.256,1.256,0,0,1,1.135.736,60.512,60.512,0,0,1,3.343,8.127c.061.215.184.307.337.307s.245-.092.307-.276a86.447,86.447,0,0,1,3.281-8,1.479,1.479,0,0,1,1.043-.828c.767-.061,1.656-.123,2.576-.123.828,0,1.656.061,2.515.123a1,1,0,0,1,.951.736,51.867,51.867,0,0,1,1.349,11.777,73.764,73.764,0,0,1-.736,10.09.8.8,0,0,1-.736.767c-.736.061-2.208.123-3.588.123-1.074,0-2.024-.061-2.638-.123-.4-.061-.552-.215-.552-.521,0-1.1,1.564-5.336,1.564-10.611a21.016,21.016,0,0,0-.337-4.2.234.234,0,0,0-.245-.215.26.26,0,0,0-.245.215,88.207,88.207,0,0,1-4.079,9.967.763.763,0,0,1-.675.491.843.843,0,0,1-.736-.491,64.2,64.2,0,0,1-3.987-9.906.353.353,0,0,0-.307-.245c-.123,0-.215.092-.245.245a31.544,31.544,0,0,0-.307,4.877c0,5.306,1.564,9.078,1.564,9.936C260.7,193.932,260.48,194.054,260.112,194.116Zm20.946.031c-.429-.031-.828-.092-.889-.705a96.456,96.456,0,0,1-.46-9.691,83.393,83.393,0,0,1,.889-12.329.815.815,0,0,1,.859-.736c1.073-.092,3.281-.184,5.459-.184,3.987,0,6.594.276,8.1,1.779a4.145,4.145,0,0,1,1.135,3.067,6.072,6.072,0,0,1-2.515,4.876c-.245.245-.4.4-.4.583a.534.534,0,0,0,.276.4c2.423,1.718,3.5,3.435,3.5,6.1,0,4.57-3.251,6.962-11.439,6.962C284.064,194.269,282.469,194.238,281.058,194.146Zm9.385-17.941c0-1.411-1.349-1.809-2.791-1.809a2.491,2.491,0,0,0-1.687.4c-.429.429-.613,2.208-.613,4.232,0,.613.123,1.012.613,1.012C287.958,180.039,290.443,178.2,290.443,176.205Zm.521,10c0-1.717-1.073-3.159-2.116-3.159a6.042,6.042,0,0,0-2.362.828,1.984,1.984,0,0,0-.981,2.024c0,1.5.123,2.423.491,2.852.307.276.583.368,1.441.368C289.124,189.117,290.964,188.35,290.964,186.2Zm25.148-6.747c0,7.882-3.067,15.15-9.017,15.15-5.919,0-9.016-7.268-9.016-15.15,0-5.122,2.177-9.231,9.078-9.231C313.965,170.225,316.112,174.334,316.112,179.456Zm-11.9.552c0,4.846,1.1,8.4,2.883,8.4,1.687,0,2.913-3.465,2.913-8.434,0-3.189-1.012-4.477-2.883-4.477S304.212,176.757,304.212,180.008Z" transform="translate(-42.998 -150.148)" fill="#f0e4d4"/>
  </g>
  <g id="Group_26" data-name="Group 26" transform="translate(287.354 0)">
    <path id="Path_3" data-name="Path 3" d="M853.181,46.47a36.113,36.113,0,0,0-4-3.037q-4.707-3.175-9.443-6.31a3.686,3.686,0,0,1-1.708-2.589,16.445,16.445,0,0,1-.12-3.285c.113-3,.255-6,.385-9a21.745,21.745,0,0,0-.371-4.571,3.173,3.173,0,0,0-2.577-2.687A51.526,51.526,0,0,0,828.058,14c-3.365-.314-6.749-.382-10.1-.833a4.471,4.471,0,0,1-2.995-1.716,54.513,54.513,0,0,1-3.248-4.706,47.384,47.384,0,0,0-3.78-5.389C806.62-.154,805.579-.353,803.8.512a30.964,30.964,0,0,0-4.339,2.7c-2.9,2.057-5.773,4.146-8.659,6.221a5.751,5.751,0,0,1-4.3,1.235c-1.228-.181-2.454-.38-3.679-.584-3.444-.574-6.863-1.3-10.356-1.551-2.508-.181-3.716.536-4.607,2.868-.329.862-.633,1.737-.887,2.624q-1.28,4.451-2.509,8.917A5.246,5.246,0,0,1,761.55,26.4c-1.479.73-3.011,1.333-4.541,1.941A27.235,27.235,0,0,0,751.285,31c-1.77,1.235-2.071,2.243-1.271,4.233a41.125,41.125,0,0,0,2.317,4.553c1.64,2.954,3.494,5.788,4.939,8.852a5.257,5.257,0,0,1,.366,3.376,55.65,55.65,0,0,1-1.868,6.4A102.879,102.879,0,0,0,752.8,68.536c-.517,2.4.059,4.273,2.268,5.52.4.227.778.5,1.172.74,2.911,1.779,6.054,3.134,8.979,4.892a4.66,4.66,0,0,1,2.289,3.2c.706,3.341.9,6.75,1.348,10.124a31.713,31.713,0,0,0,1.12,5.945c.482,1.442.984,1.787,2.486,1.761a15.652,15.652,0,0,0,3-.436c4.209-.9,8.3-2.24,12.474-3.289a8.686,8.686,0,0,1,6.465.545c3.02,1.581,6.1,3.044,9.164,4.543a52.019,52.019,0,0,0,5.867,2.58,3.454,3.454,0,0,0,3.952-.933,20.309,20.309,0,0,0,2.609-3.662c1.637-2.759,2.935-5.7,4.592-8.45a4.064,4.064,0,0,1,3.162-2.015c4.79-.6,9.63-.592,14.42-1.192a21.517,21.517,0,0,0,5.658-1.207,2.683,2.683,0,0,0,1.8-2.334,23.662,23.662,0,0,0-.5-6.366c-.609-3.9-1.627-7.73-2.23-11.637a3.35,3.35,0,0,1,.624-2.617c1.22-1.649,2.441-3.3,3.688-4.926,2.215-2.888,4.565-5.676,6.551-8.734,1.2-1.852,1.094-2.627-.561-4.116" transform="translate(-749.594 0)" fill="#f4a800"/>
    <text id="_7" data-name="7" transform="translate(43.016 83.499) rotate(-9.321)" fill="#e82125" font-size="70" font-family="Hobeaux-Bold, Hobeaux" font-weight="700"><tspan x="0" y="0">7</tspan></text>
    <text id="_" data-name="$" transform="translate(19.62 43.565) rotate(-9.32)" fill="#e82125" font-size="23" font-family="Hobeaux-Bold, Hobeaux" font-weight="700"><tspan x="0" y="0">$</tspan></text>
  </g>
</svg>
