<svg xmlns="http://www.w3.org/2000/svg" width="104.954" height="104.913" viewBox="0 0 104.954 104.913">
  <g id="Group_26" data-name="Group 26" transform="translate(0 0)">
    <path id="Path_3" data-name="Path 3" d="M853.181,46.47a36.113,36.113,0,0,0-4-3.037q-4.707-3.175-9.443-6.31a3.686,3.686,0,0,1-1.708-2.589,16.445,16.445,0,0,1-.12-3.285c.113-3,.255-6,.385-9a21.745,21.745,0,0,0-.371-4.571,3.173,3.173,0,0,0-2.577-2.687A51.526,51.526,0,0,0,828.058,14c-3.365-.314-6.749-.382-10.1-.833a4.471,4.471,0,0,1-2.995-1.716,54.513,54.513,0,0,1-3.248-4.706,47.384,47.384,0,0,0-3.78-5.389C806.62-.154,805.579-.353,803.8.512a30.964,30.964,0,0,0-4.339,2.7c-2.9,2.057-5.773,4.146-8.659,6.221a5.751,5.751,0,0,1-4.3,1.235c-1.228-.181-2.454-.38-3.679-.584-3.444-.574-6.863-1.3-10.356-1.551-2.508-.181-3.716.536-4.607,2.868-.329.862-.633,1.737-.887,2.624q-1.28,4.451-2.509,8.917A5.246,5.246,0,0,1,761.55,26.4c-1.479.73-3.011,1.333-4.541,1.941A27.235,27.235,0,0,0,751.285,31c-1.77,1.235-2.071,2.243-1.271,4.233a41.125,41.125,0,0,0,2.317,4.553c1.64,2.954,3.494,5.788,4.939,8.852a5.257,5.257,0,0,1,.366,3.376,55.65,55.65,0,0,1-1.868,6.4A102.879,102.879,0,0,0,752.8,68.536c-.517,2.4.059,4.273,2.268,5.52.4.227.778.5,1.172.74,2.911,1.779,6.054,3.134,8.979,4.892a4.66,4.66,0,0,1,2.289,3.2c.706,3.341.9,6.75,1.348,10.124a31.713,31.713,0,0,0,1.12,5.945c.482,1.442.984,1.787,2.486,1.761a15.652,15.652,0,0,0,3-.436c4.209-.9,8.3-2.24,12.474-3.289a8.686,8.686,0,0,1,6.465.545c3.02,1.581,6.1,3.044,9.164,4.543a52.019,52.019,0,0,0,5.867,2.58,3.454,3.454,0,0,0,3.952-.933,20.309,20.309,0,0,0,2.609-3.662c1.637-2.759,2.935-5.7,4.592-8.45a4.064,4.064,0,0,1,3.162-2.015c4.79-.6,9.63-.592,14.42-1.192a21.517,21.517,0,0,0,5.658-1.207,2.683,2.683,0,0,0,1.8-2.334,23.662,23.662,0,0,0-.5-6.366c-.609-3.9-1.627-7.73-2.23-11.637a3.35,3.35,0,0,1,.624-2.617c1.22-1.649,2.441-3.3,3.688-4.926,2.215-2.888,4.565-5.676,6.551-8.734,1.2-1.852,1.094-2.627-.561-4.116" transform="translate(-749.594 0)" fill="#f4a800"/>
    <text id="_7" data-name="7" transform="translate(43.016 83.499) rotate(-9.321)" fill="#e82125" font-size="70" font-family="Hobeaux-Bold, Hobeaux" font-weight="700"><tspan x="0" y="0">7</tspan></text>
    <text id="_" data-name="$" transform="translate(19.62 43.565) rotate(-9.32)" fill="#e82125" font-size="23" font-family="Hobeaux-Bold, Hobeaux" font-weight="700"><tspan x="0" y="0">$</tspan></text>
  </g>
</svg>
